# xmcd CD database file generated by LOLA_Freedb v0.9beta0
# 
# Track frame offsets:
#      182
#      17352
#      32342
#      46995
#      58107
#      71795
#      87365
#      104117
#      121947
#      135742
#      145802
#      158847
# 
# Disc length: 2320 seconds
# 
# Revision: 0 
# Processed by: cddbd v1.5.2PL0 Copyright (c) Steve Scherf et al.
# Submitted via: LOLA_Freedb v0.9beta0
# 
DISCID=a2090e0c
DTITLE=Old Country Folks - Next Time In Town
DYEAR=1993
DGENRE=
TTITLE0=Old Country Folks - Maria
TTITLE1=Old Country Folks - Turn It On, Turn It Up, Turn Me Loose
TTITLE2=Old Country Folks - The next Time in Town
TTITLE3=Old Country Folks - Big River
TTITLE4=Old Country Folks - Tennessee Flat Top Box
TTITLE5=Old Country Folks - Lay Down Sally
TTITLE6=Old Country Folks - Drivin My Live Away
TTITLE7=Old Country Folks - How Long
TTITLE8=Old Country Folks - Ring Of Fire
TTITLE9=Old Country Folks - Thing Called Love
TTITLE10=Old Country Folks - My Toot Toot
TTITLE11=Old Country Folks - Wreck Of The Old Ninety Seven
EXTD=
EXTT0=
EXTT1=
EXTT2=
EXTT3=
EXTT4=
EXTT5=
EXTT6=
EXTT7=
EXTT8=
EXTT9=
EXTT10=
EXTT11=
PLAYORDER=
